<svg width="2368" height="1423" viewBox="0 0 2368 1423" fill="none" xmlns="http://www.w3.org/2000/svg">
<mask id="mask0_224_6869" style="mask-type:alpha" maskUnits="userSpaceOnUse" x="0" y="0" width="2368" height="1423">
<rect width="2368" height="1423" fill="#D9D9D9"/>
</mask>
<g mask="url(#mask0_224_6869)">
<path d="M144 388.5L72 517.971L-72 517.971L-144 388.5L-72 259.029L72 259.029L144 388.5Z" fill="#1A1A1A"/>
<path d="M144 129.5L72 258.971L-72 258.971L-144 129.5L-72 0.0291959L72 0.0292022L144 129.5Z" fill="#1D1D1D"/>
<path d="M144 647.5L72 776.971L-72 776.971L-144 647.5L-72 518.029L72 518.029L144 647.5Z" fill="#1B1B1B"/>
<path d="M144 1165.5L72 1294.97L-72 1294.97L-144 1165.5L-72 1036.03L72 1036.03L144 1165.5Z" fill="#1C1C1C"/>
<path d="M144 906.5L72 1035.97L-72 1035.97L-144 906.5L-72 777.029L72 777.029L144 906.5Z" fill="#1A1A1A"/>
<path d="M144 1424.5L72 1553.97L-72 1553.97L-144 1424.5L-72 1295.03L72 1295.03L144 1424.5Z" fill="#1E1E1E"/>
<path d="M287 1164.5L359 1035.03L503 1035.03L575 1164.5L503 1293.97L359 1293.97L287 1164.5Z" fill="#1A1A1A"/>
<path d="M287 1423.5L359 1294.03L503 1294.03L575 1423.5L503 1552.97L359 1552.97L287 1423.5Z" fill="#1D1D1D"/>
<path d="M287 905.5L359 776.029L503 776.029L575 905.5L503 1034.97L359 1034.97L287 905.5Z" fill="#1B1B1B"/>
<path d="M287 387.5L359 258.029L503 258.029L575 387.5L503 516.971L359 516.971L287 387.5Z" fill="#1B1B1B"/>
<path d="M287 646.5L359 517.029L503 517.029L575 646.5L503 775.971L359 775.971L287 646.5Z" fill="#1A1A1A"/>
<path d="M287 128.5L359 -0.970785L503 -0.970766L575 128.5L503 257.971L359 257.971L287 128.5Z" fill="#1C1C1C"/>
<path d="M360 258.5L288 387.971L144 387.971L72 258.5L144 129.029L288 129.029L360 258.5Z" fill="#1D1D1D"/>
<path d="M360 -0.5L288 128.971L144 128.971L72 -0.500013L144 -129.971L288 -129.971L360 -0.5Z" fill="#1E1E1E"/>
<path d="M360 517.5L288 646.971L144 646.971L72 517.5L144 388.029L288 388.029L360 517.5Z" fill="#1E1E1E"/>
<path d="M360 1035.5L288 1164.97L144 1164.97L72 1035.5L144 906.029L288 906.029L360 1035.5Z" fill="#1E1E1E"/>
<path d="M360 776.5L288 905.971L144 905.971L72 776.5L144 647.029L288 647.029L360 776.5Z" fill="#1C1C1C"/>
<path d="M360 1294.5L288 1423.97L144 1423.97L72 1294.5L144 1165.03L288 1165.03L360 1294.5Z" fill="#1B1B1B"/>
<path d="M933 1034.5L1005 905.029L1149 905.029L1221 1034.5L1149 1163.97L1005 1163.97L933 1034.5Z" fill="#1A1A1A"/>
<path d="M933 1293.5L1005 1164.03L1149 1164.03L1221 1293.5L1149 1422.97L1005 1422.97L933 1293.5Z" fill="#1D1D1D"/>
<path d="M933 775.5L1005 646.029L1149 646.029L1221 775.5L1149 904.971L1005 904.971L933 775.5Z" fill="#1B1B1B"/>
<path d="M933 257.5L1005 128.029L1149 128.029L1221 257.5L1149 386.971L1005 386.971L933 257.5Z" fill="#1C1C1C"/>
<path d="M933 516.5L1005 387.029L1149 387.029L1221 516.5L1149 645.971L1005 645.971L933 516.5Z" fill="#1A1A1A"/>
<path d="M933 -1.5L1005 -130.971L1149 -130.971L1221 -1.49996L1149 127.971L1005 127.971L933 -1.5Z" fill="#1E1E1E"/>
<path d="M790 258.5L718 387.971L574 387.971L502 258.5L574 129.029L718 129.029L790 258.5Z" fill="#1A1A1A"/>
<path d="M790 -0.5L718 128.971L574 128.971L502 -0.500063L574 -129.971L718 -129.971L790 -0.5Z" fill="#1D1D1D"/>
<path d="M790 517.5L718 646.971L574 646.971L502 517.5L574 388.029L718 388.029L790 517.5Z" fill="#1B1B1B"/>
<path d="M790 1035.5L718 1164.97L574 1164.97L502 1035.5L574 906.029L718 906.029L790 1035.5Z" fill="#1B1B1B"/>
<path d="M790 776.5L718 905.971L574 905.971L502 776.5L574 647.029L718 647.029L790 776.5Z" fill="#1E1E1E"/>
<path d="M790 1294.5L718 1423.97L574 1423.97L502 1294.5L574 1165.03L718 1165.03L790 1294.5Z" fill="#1E1E1E"/>
<path d="M717 1164.5L789 1035.03L933 1035.03L1005 1164.5L933 1293.97L789 1293.97L717 1164.5Z" fill="#1C1C1C"/>
<path d="M717 1423.5L789 1294.03L933 1294.03L1005 1423.5L933 1552.97L789 1552.97L717 1423.5Z" fill="#1B1B1B"/>
<path d="M717 905.5L789 776.029L933 776.029L1005 905.5L933 1034.97L789 1034.97L717 905.5Z" fill="#1D1D1D"/>
<path d="M717 387.5L789 258.029L933 258.029L1005 387.5L933 516.971L789 516.971L717 387.5Z" fill="#1E1E1E"/>
<path d="M717 646.5L789 517.029L933 517.029L1005 646.5L933 775.971L789 775.971L717 646.5Z" fill="#1C1C1C"/>
<path d="M717 128.5L789 -0.970785L933 -0.970766L1005 128.5L933 257.971L789 257.971L717 128.5Z" fill="#1B1B1B"/>
<path d="M2224 1033.5L2296 904.029L2440 904.029L2512 1033.5L2440 1162.97L2296 1162.97L2224 1033.5Z" fill="#1A1A1A"/>
<path d="M2224 1292.5L2296 1163.03L2440 1163.03L2512 1292.5L2440 1421.97L2296 1421.97L2224 1292.5Z" fill="#1D1D1D"/>
<path d="M2224 774.5L2296 645.029L2440 645.029L2512 774.5L2440 903.971L2296 903.971L2224 774.5Z" fill="#1B1B1B"/>
<path d="M2224 256.5L2296 127.029L2440 127.029L2512 256.5L2440 385.971L2296 385.971L2224 256.5Z" fill="#1C1C1C"/>
<path d="M2224 515.5L2296 386.029L2440 386.029L2512 515.5L2440 644.971L2296 644.971L2224 515.5Z" fill="#1A1A1A"/>
<path d="M2224 -2.5L2296 -131.971L2440 -131.971L2512 -2.49996L2440 126.971L2296 126.971L2224 -2.5Z" fill="#1E1E1E"/>
<path d="M2081 257.5L2009 386.971L1865 386.971L1793 257.5L1865 128.029L2009 128.029L2081 257.5Z" fill="#1A1A1A"/>
<path d="M2081 -1.5L2009 127.971L1865 127.971L1793 -1.50006L1865 -130.971L2009 -130.971L2081 -1.5Z" fill="#1D1D1D"/>
<path d="M2081 516.5L2009 645.971L1865 645.971L1793 516.5L1865 387.029L2009 387.029L2081 516.5Z" fill="#1B1B1B"/>
<path d="M2081 1034.5L2009 1163.97L1865 1163.97L1793 1034.5L1865 905.029L2009 905.029L2081 1034.5Z" fill="#1B1B1B"/>
<path d="M2081 775.5L2009 904.971L1865 904.971L1793 775.5L1865 646.029L2009 646.029L2081 775.5Z" fill="#1A1A1A"/>
<path d="M2081 1293.5L2009 1422.97L1865 1422.97L1793 1293.5L1865 1164.03L2009 1164.03L2081 1293.5Z" fill="#1C1C1C"/>
<path d="M2008 1163.5L2080 1034.03L2224 1034.03L2296 1163.5L2224 1292.97L2080 1292.97L2008 1163.5Z" fill="#1D1D1D"/>
<path d="M2008 1422.5L2080 1293.03L2224 1293.03L2296 1422.5L2224 1551.97L2080 1551.97L2008 1422.5Z" fill="#1E1E1E"/>
<path d="M2008 904.5L2080 775.029L2224 775.029L2296 904.5L2224 1033.97L2080 1033.97L2008 904.5Z" fill="#1C1C1C"/>
<path d="M2008 386.5L2080 257.029L2224 257.029L2296 386.5L2224 515.971L2080 515.971L2008 386.5Z" fill="#1E1E1E"/>
<path d="M2008 645.5L2080 516.029L2224 516.029L2296 645.5L2224 774.971L2080 774.971L2008 645.5Z" fill="#1C1C1C"/>
<path d="M2008 127.5L2080 -1.97079L2224 -1.97077L2296 127.5L2224 256.971L2080 256.971L2008 127.5Z" fill="#1B1B1B"/>
<path d="M1435 387.5L1363 516.971L1219 516.971L1147 387.5L1219 258.029L1363 258.029L1435 387.5Z" fill="#1E1E1E"/>
<path d="M1435 128.5L1363 257.971L1219 257.971L1147 128.5L1219 -0.970842L1363 -0.97081L1435 128.5Z" fill="#1D1D1D"/>
<path d="M1435 646.5L1363 775.971L1219 775.971L1147 646.5L1219 517.029L1363 517.029L1435 646.5Z" fill="#1B1B1B"/>
<path d="M1435 1164.5L1363 1293.97L1219 1293.97L1147 1164.5L1219 1035.03L1363 1035.03L1435 1164.5Z" fill="#1C1C1C"/>
<path d="M1435 905.5L1363 1034.97L1219 1034.97L1147 905.5L1219 776.029L1363 776.029L1435 905.5Z" fill="#1A1A1A"/>
<path d="M1435 1423.5L1363 1552.97L1219 1552.97L1147 1423.5L1219 1294.03L1363 1294.03L1435 1423.5Z" fill="#1E1E1E"/>
<path d="M1578 1163.5L1650 1034.03L1794 1034.03L1866 1163.5L1794 1292.97L1650 1292.97L1578 1163.5Z" fill="#1A1A1A"/>
<path d="M1578 1422.5L1650 1293.03L1794 1293.03L1866 1422.5L1794 1551.97L1650 1551.97L1578 1422.5Z" fill="#1D1D1D"/>
<path d="M1578 904.5L1650 775.029L1794 775.029L1866 904.5L1794 1033.97L1650 1033.97L1578 904.5Z" fill="#1B1B1B"/>
<path d="M1578 386.5L1650 257.029L1794 257.029L1866 386.5L1794 515.971L1650 515.971L1578 386.5Z" fill="#1B1B1B"/>
<path d="M1578 645.5L1650 516.029L1794 516.029L1866 645.5L1794 774.971L1650 774.971L1578 645.5Z" fill="#1E1E1E"/>
<path d="M1578 127.5L1650 -1.97077L1794 -1.97073L1866 127.5L1794 256.971L1650 256.971L1578 127.5Z" fill="#1E1E1E"/>
<path d="M1651 257.5L1579 386.971L1435 386.971L1363 257.5L1435 128.029L1579 128.029L1651 257.5Z" fill="#1C1C1C"/>
<path d="M1651 -1.5L1579 127.971L1435 127.971L1363 -1.50006L1435 -130.971L1579 -130.971L1651 -1.5Z" fill="#1B1B1B"/>
<path d="M1651 516.5L1579 645.971L1435 645.971L1363 516.5L1435 387.029L1579 387.029L1651 516.5Z" fill="#1D1D1D"/>
<path d="M1651 1034.5L1579 1163.97L1435 1163.97L1363 1034.5L1435 905.029L1579 905.029L1651 1034.5Z" fill="#1E1E1E"/>
<path d="M1651 775.5L1579 904.971L1435 904.971L1363 775.5L1435 646.029L1579 646.029L1651 775.5Z" fill="#1C1C1C"/>
<path d="M1651 1293.5L1579 1422.97L1435 1422.97L1363 1293.5L1435 1164.03L1579 1164.03L1651 1293.5Z" fill="#1B1B1B"/>
</g>
</svg>
